<svg xmlns="http://www.w3.org/2000/svg" viewBox="0 0 261.2 127.7"><path fill="#006ab3" d="M61.6 48.5h-8.9v18.3h-9.5V48.5h-8.9v-6.2h27.3v6.2zM88 59.2H69.6c0 2.2 1.6 3.2 4.9 3.2 2.1 0 3.4-.5 4-1.5h9.3c-1.3 4.3-5.9 6.5-13.8 6.5-4.4 0-7.7-.9-10-2.7-2.3-1.8-3.5-4.3-3.5-7.5s1.2-5.7 3.5-7.5c2.3-1.8 5.7-2.7 10-2.7 9.3 0 14 3.9 14 11.8v.4zm-8.7-4c-.3-2.2-1.8-3.3-4.8-3.3-3.1 0-4.9 1.1-5.3 3.3h10.1zm38 3.2c-.6 6-5.2 9-13.6 9-4.4 0-7.7-.9-10.1-2.7-2.4-1.7-3.6-4.2-3.6-7.4s1.2-5.7 3.5-7.5c2.4-1.8 5.7-2.7 10.1-2.7 8.2 0 12.7 2.7 13.4 8.2h-9c-.7-1.7-2.1-2.6-4.1-2.6-1.5 0-2.7.4-3.6 1.2-.9.8-1.3 1.9-1.3 3.3s.4 2.5 1.3 3.3c.8.8 2 1.2 3.4 1.2 1.2 0 2.2-.3 3-.9.8-.6 1.3-1.4 1.5-2.4h9.1zm27.5 8.4h-8.5v-9c0-1.4-.2-2.3-.7-2.9-.4-.6-1.3-.9-2.4-.9-1.3 0-2.2.3-2.9.9-.7.6-1.1 1.4-1.1 2.5v9.3h-8.5V42h8.5v7.7c2.2-1.6 4.7-2.3 7.5-2.3s4.9.7 6.2 2.2c1.3 1.4 1.9 3.7 1.9 6.7v10.5zm28.5 0h-8.5v-9c0-1.4-.2-2.3-.6-2.9-.4-.6-1.2-.9-2.4-.9s-2.2.3-2.9.9c-.7.6-1.1 1.4-1.1 2.5v9.3h-8.5v-19h8.5v2c2.2-1.6 4.7-2.3 7.5-2.3s4.9.7 6.2 2.2c1.3 1.4 1.9 3.7 1.9 6.7v10.5h-.1zm13.4-20.6H178v-4.8h8.7v4.8zm0 20.6H178V47.7h8.7v19.1zm30.8-8.4c-.6 6-5.2 9-13.6 9-4.4 0-7.7-.9-10.1-2.7-2.4-1.8-3.5-4.3-3.5-7.5s1.2-5.7 3.5-7.5c2.4-1.8 5.7-2.7 10.1-2.7 8.2 0 12.7 2.7 13.4 8.2h-9.1c-.7-1.7-2.1-2.6-4.1-2.6-1.5 0-2.7.4-3.6 1.2-.9.8-1.3 1.9-1.3 3.3s.4 2.5 1.3 3.3c.8.8 2 1.2 3.4 1.2 1.2 0 2.2-.3 3-.9.8-.6 1.3-1.4 1.5-2.4h9.1v.1zm30.1 8.4h-8.9c-.3-.8-.5-1.6-.5-2.6-2 2.2-5.2 3.2-9.6 3.2-6.2 0-9.4-2.1-9.4-6.3 0-1.4.3-2.5 1-3.4.8-1 2-1.7 3.5-2.1 1-.2 2.7-.4 5.3-.6l6.6-.3c1.4-.1 2.1-.5 2.1-1.2 0-1.2-1.3-1.7-3.8-1.7-1.4 0-2.5.1-3.2.4-.7.3-1.1.8-1.2 1.5h-8.8c.2-2.4 1.3-4.1 3.5-5.1 2-.9 5.2-1.4 9.6-1.4 5 0 8.4.7 10.2 2.1 1 .8 1.7 1.8 2.1 3 .3 1 .5 2.4.5 4.2v7.4c0 1.3.3 2.1.9 2.6v.3h.1zm-9.4-8.4v-.5c-.7.4-1.6.6-2.7.7l-3.3.3c-1.2.1-2 .3-2.5.5-.5.3-.8.7-.8 1.2 0 1.2 1 1.9 3.1 1.9 1.9 0 3.4-.4 4.5-1.1 1.2-.8 1.7-1.8 1.7-3zm22 8.4h-8.7V42h8.7v24.8z"/><path fill="#5ec5ed" d="M69.8 95.9h-2.3l.1-21-9.8 21h-2.6l-10-21 .2 21h-2.3v-23h3.7l9.7 20.9 9.9-20.9h3.4v23zm22.4-.2c-.7.2-1.3.3-1.9.3-.8 0-1.4-.3-1.7-.8-.3-.4-.4-1-.5-1.9-1.8 2-4.2 3-7.2 3-2.1 0-3.6-.4-4.8-1.3-1.1-.9-1.7-2.1-1.7-3.7 0-1.5.6-2.7 1.8-3.6.8-.6 2.8-1.1 6-1.6 2.7-.4 4.2-.6 4.5-.7.9-.3 1.4-.9 1.4-1.9 0-1.9-1.6-2.8-4.7-2.8-3.8 0-5.9 1.3-6 3.9h-2.2c.3-4 2.9-5.9 7.9-5.9 3.1 0 5.1.7 6.2 2 .7.8 1 2.2 1 4.1v7.5c0 .6 0 1.1.1 1.3.1.3.4.4.8.4.3 0 .6-.1 1-.2v1.9zm-4.1-6.6v-2.3c-.7.4-2.7.8-5.8 1.3-2.1.3-3.5.6-4.2 1-.9.4-1.4 1.2-1.4 2.2 0 .9.4 1.6 1.2 2.2.8.6 1.8.8 3.2.8 2.1 0 3.8-.5 5.1-1.5 1.2-.9 1.9-2.2 1.9-3.7zm23.2 6.8h-2.2v-9.5c0-2.1-.3-3.5-1-4.4-.7-.9-1.9-1.4-3.7-1.4-1.9 0-3.5.5-4.8 1.6-1.2 1-1.9 2.4-1.9 4v9.6h-2.2V79h2.1v3.1c1.7-2.3 4-3.5 7.1-3.5 4.3 0 6.5 2.1 6.5 6.3v11h.1zm21.9-.2c-.7.2-1.3.3-1.9.3-.8 0-1.4-.3-1.7-.8-.3-.4-.4-1-.5-1.9-1.8 2-4.2 3-7.2 3-2.1 0-3.6-.4-4.7-1.3s-1.7-2.1-1.7-3.7c0-1.5.6-2.7 1.8-3.6.8-.6 2.8-1.1 6-1.6 2.7-.4 4.2-.6 4.5-.7.9-.3 1.4-.9 1.4-1.9 0-1.9-1.6-2.8-4.7-2.8-3.8 0-5.9 1.3-6 3.9h-2.2c.3-4 2.9-5.9 7.9-5.9 3.1 0 5.1.7 6.2 2 .7.8 1 2.2 1 4.1v7.5c0 .6 0 1.1.1 1.3.1.3.4.4.8.4.3 0 .6-.1 1-.2v1.9h-.1zm-4.2-6.6v-2.3c-.7.4-2.7.8-5.8 1.3-2.1.3-3.5.6-4.2 1-.9.4-1.4 1.2-1.4 2.2 0 .9.4 1.6 1.2 2.2.8.6 1.8.8 3.2.8 2.1 0 3.8-.5 5.1-1.5 1.3-.9 1.9-2.2 1.9-3.7zm24.4 5.5c0 1.3-.1 2.3-.3 2.9-.3 1-.9 1.8-1.7 2.5-1.6 1.3-3.9 1.9-6.9 1.9-2.3 0-4.2-.4-5.5-1.3-1.4-.9-2.1-2.1-2.3-3.7h2.3c.3 2 2.1 3 5.4 3 2.4 0 4.1-.4 5.2-1.2 1-.8 1.5-2.1 1.5-3.9V93c-1.7 2.2-4 3.3-6.7 3.3s-4.8-.8-6.5-2.5c-1.7-1.6-2.5-3.8-2.5-6.4 0-2.6.8-4.8 2.5-6.4 1.6-1.6 3.8-2.5 6.5-2.5 2.8 0 5 1.1 6.7 3.3V79h2.2v15.6h.1zm-2.2-7.1c0-2.1-.6-3.7-1.8-4.9-1.2-1.2-2.8-1.8-4.9-1.8-2 0-3.7.6-4.9 1.9-1.2 1.2-1.8 2.9-1.8 4.9s.6 3.7 1.8 4.9c1.2 1.2 2.8 1.9 4.9 1.9 2 0 3.7-.6 4.9-1.8 1.2-1.4 1.8-3.1 1.8-5.1zm23.9.4h-15.6c.1 2 .8 3.6 1.9 4.7 1.2 1.1 2.7 1.7 4.7 1.7 3 0 5-1.3 5.9-3.8h2.5c-.4 1.8-1.4 3.3-2.9 4.4-1.5 1.1-3.3 1.6-5.4 1.6-2.7 0-4.9-.8-6.6-2.5-1.6-1.7-2.5-3.9-2.5-6.6 0-2.7.8-4.9 2.5-6.6 1.7-1.7 3.8-2.5 6.5-2.5s4.9.8 6.5 2.5c1.6 1.6 2.5 3.8 2.5 6.6v.5zm-2.5-1.8c-.1-1.7-.8-3-2-4s-2.7-1.5-4.5-1.5c-1.9 0-3.4.5-4.6 1.5s-1.9 2.4-2 4h13.1zm35.1 9.8h-2.2v-9.5c0-2.1-.3-3.5-1-4.4-.7-.9-1.9-1.3-3.7-1.3-1.9 0-3.5.5-4.8 1.6-1.2 1-1.9 2.4-1.9 4v9.6h-2v-9.5c0-2.1-.3-3.5-1-4.4-.7-.9-1.9-1.4-3.7-1.4-1.9 0-3.5.5-4.8 1.6-1.2 1-1.9 2.4-1.9 4v9.6h-2.2V79h2.1v3.1c1.7-2.3 4-3.5 7.1-3.5 3.2 0 5.3 1.2 6.3 3.5 1.7-2.3 4-3.5 7.1-3.5 4.3 0 6.5 2.1 6.5 6.3v11h.1zm21.6-8h-15.6c.1 2 .8 3.6 1.9 4.7 1.2 1.1 2.7 1.7 4.7 1.7 3 0 5-1.3 5.9-3.8h2.5c-.4 1.8-1.4 3.3-2.9 4.4-1.5 1.1-3.3 1.6-5.4 1.6-2.7 0-4.9-.8-6.6-2.5-1.6-1.7-2.5-3.9-2.5-6.6 0-2.7.8-4.9 2.5-6.6 1.7-1.7 3.8-2.5 6.5-2.5s4.9.8 6.5 2.5c1.6 1.6 2.5 3.8 2.5 6.6v.5zm-2.6-1.8c-.1-1.7-.8-3-2-4s-2.7-1.5-4.5-1.5c-1.9 0-3.4.5-4.6 1.5-1.2 1-1.9 2.4-2 4h13.1zm21.8 9.8h-2.2v-9.5c0-2.1-.3-3.5-1-4.4-.7-.9-1.9-1.4-3.7-1.4-1.9 0-3.5.5-4.8 1.6-1.2 1-1.9 2.4-1.9 4v9.6h-2.2V79h2.1v3.1c1.7-2.3 4-3.5 7.1-3.5 4.3 0 6.5 2.1 6.5 6.3v11h.1zm11.7-15h-3.8v10.6c0 1.1.1 1.8.3 2.1.3.4.8.6 1.8.6.5 0 1.1-.1 1.8-.3v1.9c-1 .3-1.9.4-2.7.4-1.2 0-2.1-.4-2.6-1.1-.5-.7-.7-1.8-.7-3.4V80.9h-2.9V79h2.9v-4.9h2.2V79h3.8v1.9h-.1z"/><path fill="#006ab3" fill-rule="evenodd" d="M6.9 35c-2 4.2-3.5 8.8-4.6 13.6-3.8 16.7-2.4 36.4.6 54.7.4 2.7 2.1 4.1 3.9 4.6.7.2 1.4.2 2.1.1.7-.1 1.3-.3 1.8-.7 1-.7 1.6-1.9 1.2-3.5-3.3-13.5-5.3-26.3-5.7-38C5 55.2 5 44.7 6.9 35z" clip-rule="evenodd"/><path fill="#0095d8" fill-rule="evenodd" d="M11.5 32.4c.1-2.6.3-5.3.7-8-1.2 3.2-2.2 6.5-2.9 10-3.9 18.9-.4 41.1 5.5 61 .8 2.6 2.6 3.8 4.4 4.1.7.1 1.4 0 2.1-.2.6-.2 1.2-.5 1.7-.9.9-.8 1.3-2.1.7-3.6-5.3-14-8.8-27.7-10.2-40.4-.1-.7-.2-1.3-.4-2v-.1l-.1-.8v-.3c-.2-1.3-.4-2.5-.6-3.8v-.1c-.1-.5-.1-1.1-.2-1.6v-.2c-.1-.6-.1-1.2-.2-1.9v-.1c-.2-2.5-.4-4.9-.4-7.4v-.4c-.2-1-.2-2.2-.1-3.3z" clip-rule="evenodd"/><path fill="#5ec5ed" fill-rule="evenodd" d="M18 29.5C17.7 18.6 19.7 8.6 24.3 0c-6.4 8.3-9.6 18.2-10.5 28.7-1.5 19.3 4.7 40.9 12.9 59.9 1.1 2.5 3 3.5 4.9 3.5.7 0 1.4-.2 2-.4.6-.3 1.1-.6 1.5-1.1.8-.9 1.1-2.2.3-3.7C24.9 66.8 18.5 47 18 29.5z" clip-rule="evenodd"/><path fill="#0095d8" d="M11.6 127.4h-1.4l-4.5-5.5-2.3 2v3.6h-1v-10.7h1.1v5.9l6.6-5.9h1.5l-5.1 4.5 5.1 6.1zm15.2-.1c-.3.1-.6.1-.9.1-.4 0-.6-.1-.8-.4-.1-.2-.2-.5-.2-.9-.8.9-1.9 1.4-3.4 1.4-1 0-1.7-.2-2.2-.6-.5-.4-.8-1-.8-1.7s.3-1.3.8-1.7c.4-.3 1.3-.5 2.8-.7 1.3-.2 2-.3 2.1-.3.4-.1.7-.4.7-.9 0-.9-.7-1.3-2.2-1.3-1.8 0-2.7.6-2.8 1.8h-1c.1-1.8 1.4-2.8 3.7-2.8 1.4 0 2.4.3 2.9.9.3.4.5 1 .5 1.9v3.5c0 .3 0 .5.1.6.1.1.2.2.4.2.1 0 .3 0 .4-.1v1h-.1zm-1.9-3.1v-1.1c-.3.2-1.3.4-2.7.6-1 .1-1.6.3-1.9.5-.4.2-.7.6-.7 1s.2.8.5 1c.4.3.9.4 1.5.4 1 0 1.8-.2 2.4-.7.6-.4.9-1 .9-1.7zm13.9-3.7c-.3-.1-.6-.1-.9-.1-1.2 0-2.1.7-2.5 2v5.1h-1v-7.9h1v1.3c.2-.5.6-.9 1-1.2.4-.3.9-.4 1.4-.4.3 0 .7.1 1 .2v1zm18.4-1l-2.7 7.9h-1.2l-2.3-7-2.2 7h-1.2l-2.8-7.9h1.1l2.3 6.9 2.1-6.9h1.3l2.2 6.9 2.2-6.9h1.2zm15.3 7.8c-.3.1-.6.1-.9.1-.4 0-.6-.1-.8-.4-.1-.2-.2-.5-.2-.9-.8.9-1.9 1.4-3.4 1.4-1 0-1.7-.2-2.2-.6-.5-.4-.8-1-.8-1.7s.3-1.3.8-1.7c.4-.3 1.3-.5 2.8-.7 1.3-.2 2-.3 2.1-.3.4-.1.7-.4.7-.9 0-.9-.7-1.3-2.2-1.3-1.8 0-2.7.6-2.8 1.8h-1c.1-1.8 1.3-2.8 3.7-2.8 1.4 0 2.4.3 2.9.9.3.4.5 1 .5 1.9v3.5c0 .3 0 .5.1.6.1.1.2.2.4.2s.3 0 .4-.1v1h-.1zm-2-3.1v-1.1c-.3.2-1.3.4-2.7.6-1 .1-1.6.3-1.9.5-.4.2-.7.6-.7 1s.2.8.5 1c.4.3.9.4 1.5.4 1 0 1.8-.2 2.4-.7.6-.4.9-1 .9-1.7zm12.7-3.8h-1.8v4.9c0 .5 0 .8.1 1 .1.2.4.3.8.3.2 0 .5 0 .8-.1v.9c-.5.1-.9.2-1.3.2-.6 0-1-.2-1.2-.5-.2-.3-.3-.8-.3-1.6v-5.1H79v-.9h1.3v-2.3h1v2.3h1.8v.9h.1zm10.4 0h-1.8v4.9c0 .5 0 .8.1 1 .1.2.4.3.8.3.2 0 .5 0 .8-.1v.9c-.5.1-.9.2-1.3.2-.6 0-1-.2-1.2-.5-.2-.3-.3-.8-.3-1.6v-5.1h-1.3v-.9h1.3v-2.3h1v2.3h1.8v.9h.1zm22.2 7h-1.3L113 126c-1.1 1.1-2.3 1.7-3.9 1.7-1.2 0-2.1-.3-2.9-.9-.7-.6-1.1-1.4-1.1-2.3 0-.7.2-1.3.7-1.8.4-.5 1.1-1 2.1-1.5-.8-.8-1.2-1.6-1.2-2.3 0-.7.2-1.2.7-1.6.4-.4 1-.6 1.8-.6.7 0 1.3.2 1.8.6.4.4.7.9.7 1.5 0 1-.7 1.8-2.1 2.6l3.4 3.1c.4-.8.6-1.5.7-2.2h1c-.1 1-.4 2-1 2.9l2.1 2.2zm-5.2-8.6c0-.4-.1-.7-.4-.9-.3-.2-.6-.4-1.1-.4-.4 0-.8.1-1.1.4-.3.2-.4.6-.4 1 0 .6.4 1.2 1.2 1.8 1.2-.6 1.8-1.2 1.8-1.9zm1.7 6.6l-3.7-3.5c-.8.4-1.4.8-1.8 1.2-.4.4-.6.9-.6 1.4 0 .7.3 1.2.8 1.6.5.5 1.2.7 2.1.7 1.2 0 2.3-.5 3.2-1.4zm25 2h-1.1l-1.5-3.3h-5.9l-1.5 3.3h-1.1l4.9-10.7h1.2l5 10.7zm-3-4.3l-2.5-5.5-2.5 5.5h5zm17.1 2c0 1.7-1.3 2.6-3.9 2.6-1.1 0-2-.2-2.6-.7-.6-.5-1-1.2-1-2h1c.1 1.2 1.1 1.8 2.7 1.8 1.8 0 2.7-.5 2.7-1.5 0-.6-.5-1-1.5-1.2l-2.3-.3c-.9-.1-1.5-.4-1.9-.7-.4-.3-.6-.8-.6-1.5s.3-1.3.9-1.7c.6-.4 1.5-.6 2.6-.6s2 .2 2.6.7c.6.5.9 1.1 1 1.9h-1c-.1-1.1-1-1.6-2.7-1.6-.7 0-1.3.1-1.7.3-.4.2-.6.6-.6 1s.2.6.5.8c.3.2.7.3 1.4.4l2 .3c.8.1 1.5.4 1.9.7.3.2.5.7.5 1.3zm14.3 0c0 1.7-1.3 2.6-3.9 2.6-1.1 0-2-.2-2.6-.7-.6-.5-1-1.2-1-2h1c.2 1.2 1.1 1.8 2.7 1.8 1.8 0 2.7-.5 2.7-1.5 0-.6-.5-1-1.5-1.2l-2.3-.3c-.9-.1-1.5-.4-1.9-.7-.4-.3-.6-.8-.6-1.5s.3-1.3.9-1.7c.6-.4 1.5-.6 2.6-.6s2 .2 2.6.7c.6.5.9 1.1 1 1.9h-1c-.1-1.1-1-1.6-2.7-1.6-.7 0-1.3.1-1.7.3-.4.2-.6.6-.6 1s.2.6.5.8c.3.2.7.3 1.4.4l2 .3c.9.1 1.5.4 1.9.7.3.2.5.7.5 1.3zm15.4-1.6c0 1.3-.4 2.3-1.2 3.1-.8.8-1.8 1.2-3.1 1.2s-2.3-.4-3-1.2c-.8-.8-1.2-1.8-1.2-3.1s.4-2.3 1.2-3.1c.8-.8 1.8-1.2 3-1.2 1.3 0 2.3.4 3.1 1.2.8.8 1.2 1.8 1.2 3.1zm-1.1 0c0-1-.3-1.8-.9-2.3-.6-.6-1.3-.9-2.3-.9-1 0-1.7.3-2.3.9-.6.6-.9 1.4-.9 2.3 0 1 .3 1.8.9 2.3.6.6 1.3.9 2.3.9 1 0 1.7-.3 2.3-.9.6-.6.9-1.3.9-2.3zm16.3 1c-.1.9-.5 1.7-1.2 2.3-.7.6-1.6.9-2.6.9-1.3 0-2.3-.4-3-1.2-.8-.8-1.2-1.8-1.2-3.1s.4-2.3 1.2-3.1c.8-.8 1.8-1.2 3-1.2 1 0 1.8.3 2.5.8s1.1 1.2 1.2 2.1h-1.1c-.4-1.3-1.3-1.9-2.7-1.9-.9 0-1.7.3-2.3.9-.6.6-.9 1.4-.9 2.3 0 1 .3 1.8.9 2.3.6.6 1.3.9 2.3.9.7 0 1.3-.2 1.8-.6.5-.4.8-.9 1-1.6h1.1v.2zm8.5-6.6h-1v-1.2h1v1.2zm0 9.5h-1v-7.9h1v7.9zm16.2-.1c-.3.1-.6.1-.9.1-.4 0-.6-.1-.8-.4-.1-.2-.2-.5-.2-.9-.8.9-1.9 1.4-3.4 1.4-1 0-1.7-.2-2.2-.6-.5-.4-.8-1-.8-1.7s.3-1.3.8-1.7c.4-.3 1.3-.5 2.8-.7 1.3-.2 2-.3 2.1-.3.4-.1.7-.4.7-.9 0-.9-.7-1.3-2.2-1.3-1.8 0-2.7.6-2.8 1.8h-1c.1-1.8 1.3-2.8 3.7-2.8 1.4 0 2.4.3 2.9.9.3.4.5 1 .5 1.9v3.5c0 .3 0 .5.1.6.1.1.2.2.4.2s.3 0 .4-.1v1h-.1zm-1.9-3.1v-1.1c-.3.2-1.3.4-2.7.6-1 .1-1.6.3-1.9.5-.4.2-.7.6-.7 1s.2.8.5 1c.4.3.9.4 1.5.4 1 0 1.8-.2 2.4-.7.6-.4.9-1 .9-1.7zm12.7-3.8H230v4.9c0 .5 0 .8.1 1 .1.2.4.3.8.3.2 0 .5 0 .8-.1v.9c-.5.1-.9.2-1.3.2-.6 0-1-.2-1.2-.5-.2-.3-.3-.8-.3-1.6v-5.1h-1.3v-.9h1.3v-2.3h1v2.3h1.8v.9h.1zm14.9 3.3h-7.3c.1.9.4 1.7.9 2.2.5.5 1.3.8 2.2.8 1.4 0 2.3-.6 2.7-1.8h1.2c-.2.9-.7 1.5-1.4 2s-1.5.7-2.5.7c-1.3 0-2.3-.4-3.1-1.2-.8-.8-1.2-1.8-1.2-3.1s.4-2.3 1.2-3.1c.8-.8 1.8-1.2 3-1.2 1.3 0 2.3.4 3 1.1.8.8 1.2 1.8 1.2 3.1v.5h.1zm-1.1-.9c-.1-.8-.4-1.4-.9-1.9s-1.2-.7-2.1-.7c-.9 0-1.6.2-2.1.7-.6.5-.9 1.1-.9 1.9h6zm15.6 2.3c0 1.7-1.3 2.6-3.9 2.6-1.1 0-2-.2-2.6-.7-.6-.5-1-1.2-1-2h1c.1 1.2 1.1 1.8 2.7 1.8 1.8 0 2.7-.5 2.7-1.5 0-.6-.5-1-1.5-1.2l-2.3-.3c-.9-.1-1.5-.4-1.9-.7-.4-.3-.6-.8-.6-1.5s.3-1.3.9-1.7c.6-.4 1.5-.6 2.6-.6s2 .2 2.6.7c.6.5.9 1.1 1 1.9h-1c-.1-1.1-1-1.6-2.7-1.6-.7 0-1.3.1-1.7.3-.4.2-.6.6-.6 1s.2.6.5.8c.3.2.7.3 1.4.4l2 .3c.9.1 1.5.4 1.9.7.3.2.5.7.5 1.3z"/><path fill="none" stroke="#0095d8" stroke-miterlimit="10" stroke-width=".5" d="M2.2 112h257.9"/></svg>